<svg width="142" height="130" viewBox="0 0 142 130" fill="none" xmlns="http://www.w3.org/2000/svg">
<path fill-rule="evenodd" clip-rule="evenodd" d="M30.4 0.391043C25.9221 5.26413 24.2218 18.4433 27.289 24.5053C27.8279 25.5705 28.0918 25.562 28.8264 24.4555C31.8574 19.8903 33.2754 13.3238 32.6049 6.95674C32.2787 3.85985 31.3393 0 30.9116 0C30.8279 0 30.5976 0.176056 30.4 0.391043ZM111.892 0.304144C111.806 0.471511 111.608 1.15575 111.451 1.82487C109.472 10.299 110.593 19.1919 114.326 24.6357C114.976 25.5825 115.213 25.5657 115.654 24.541C118.495 17.9348 117.084 5.7339 112.89 0.645481C112.294 -0.0771663 112.118 -0.137299 111.892 0.304144ZM45.9725 1.60328C39.9765 4.69356 35.1884 11.0097 33.2229 18.4225C32.5276 21.0449 32.6578 21.368 34.1277 20.6703C40.0676 17.851 45.8177 10.4739 47.5299 3.47594C48.2416 0.566925 48.1643 0.47377 45.9725 1.60328ZM95.9481 1.09648C95.8949 1.23483 96.0472 2.21591 96.286 3.27659C97.8225 10.0976 102.565 16.7801 108.299 20.2047C110.449 21.4891 110.705 21.3059 110.118 18.899C108.258 11.2577 103.373 4.3948 97.7843 1.57112C96.436 0.88984 96.0642 0.79373 95.9481 1.09648ZM21.0295 13.6865C16.5783 20.5005 15.0965 32.7814 17.945 39.2501C18.4848 40.4757 18.591 40.4046 19.8748 37.9614C24.3113 29.5178 25.2676 20.3909 22.4003 13.8603C21.8678 12.6475 21.7204 12.6289 21.0295 13.6865ZM120.664 13.2374C118.599 16.429 118.236 24.2241 119.859 30.5013C120.666 33.6238 123.509 40.1411 124.067 40.146C124.306 40.1481 124.735 39.0949 125.148 37.4947C126.902 30.6882 125.902 22.1958 122.542 15.3642C121.396 13.0334 121.05 12.6413 120.664 13.2374ZM43.8204 18.5495C37.9175 20.0236 33.4487 22.4851 29.4352 26.4731C26.0702 29.8169 23.067 34.4782 24.4855 34.1558C24.7006 34.1068 25.2676 33.986 25.7455 33.8872C31.2811 32.7428 37.7804 28.9526 41.6288 24.6246C43.3828 22.652 45.6343 19.0003 45.3651 18.5646C45.2716 18.4136 44.3993 18.4051 43.8204 18.5495ZM98.4452 18.5132C98.1793 18.7822 99.4348 21.2527 100.87 23.2846C104.272 28.101 112.815 33.4938 117.87 34.0153C119.099 34.1422 119.093 34.0572 117.713 31.7591C114.962 27.1794 110.527 23.0609 105.784 20.6823C103.31 19.4418 98.8349 18.119 98.4452 18.5132ZM7.26744 26.2868C5.37357 33.9006 6.65706 41.2793 10.841 46.833C12.7488 49.3652 15.4046 51.7914 15.4046 51.0021C15.4046 50.9503 15.5369 50.305 15.6983 49.5682C16.1236 47.6292 16.1219 42.445 15.6952 39.9119C14.7412 34.247 12.4829 29.6011 9.2416 26.6344C7.8149 25.3284 7.51875 25.2763 7.26744 26.2868ZM132.949 26.6318C127.854 31.5248 125.253 41.3513 126.805 49.8463C127.114 51.5351 127.235 51.5165 129.178 49.4819C134.445 43.9645 136.536 36.8244 135.263 28.7022C134.693 25.0676 134.634 25.0144 132.949 26.6318ZM30.3511 34.7908C22.1523 39.8203 17.7799 46.4533 17.0541 54.9631C16.8867 56.9242 17.307 56.9094 20.0198 54.8591C25.4082 50.7865 29.569 43.92 31.0489 36.6581C31.5263 34.3153 31.4518 34.1156 30.3511 34.7908ZM111.812 34.5192C111.583 34.7489 112.429 38.5829 113.258 41.0696C115.212 46.931 119.362 52.763 123.592 55.592C125.382 56.7891 125.418 56.7805 125.418 55.1589C125.418 50.0933 122.697 43.8776 118.558 39.4892C116.314 37.1101 112.23 34.1012 111.812 34.5192ZM5.6195 45.8191C5.39721 46.0414 5.49454 50.0712 5.76635 51.9023C6.7629 58.6133 10.6219 64.9583 16.3096 69.2377C17.3072 69.9881 17.38 69.8192 17.2653 67.0167C17.0124 60.8386 15.1528 55.4045 11.7978 51.0403C9.96789 48.6596 6.07154 45.3669 5.6195 45.8191ZM135.313 46.2564C129.153 50.7012 125.244 58.9613 125.244 67.5307C125.244 70.1559 125.224 70.147 127.145 68.3784C133.416 62.6033 136.35 56.364 136.426 48.6395C136.458 45.467 136.445 45.4393 135.313 46.2564ZM21.3537 57.3095C17.8885 64.9373 19.1908 74.941 24.7811 83.6397C25.758 85.1601 25.9186 85.2386 26.2803 84.3731C27.3943 81.7069 27.8133 75.0656 27.1279 70.9416C26.3979 66.5501 24.9544 61.9255 22.9338 57.5052C22.1714 55.8373 22.0303 55.8199 21.3537 57.3095ZM119.548 58.1793C115.625 67.4684 114.383 77.6738 116.435 83.7532C116.935 85.2346 117.071 85.2331 118.003 83.7351C123.371 75.108 124.637 65.2586 121.388 57.3964C121.101 56.7033 120.764 56.1364 120.639 56.1364C120.513 56.1364 120.026 57.0481 119.548 58.1793ZM0.0126372 62.0981C-0.163245 62.5564 1.52884 66.1896 3.0911 68.7086C7.01178 75.0298 14.3493 80.1453 20.0054 80.5006C21.2268 80.5772 21.2091 80.3136 19.831 77.9063C14.9032 69.2973 10.2792 65.0596 3.29774 62.7549C0.611367 61.8682 0.137249 61.7735 0.0126372 62.0981ZM139.099 62.5677C132.073 64.9027 127.174 69.5563 122.68 78.1618C121.441 80.5341 121.436 80.7077 122.609 80.5482C129.926 79.5527 137.027 73.4342 140.79 64.8849C142.251 61.5646 142.225 61.5286 139.099 62.5677ZM8.51008 79.2705C8.57091 79.5946 9.08952 80.7981 9.66253 81.9452C13.1593 88.9461 19.3689 94.0566 27.81 96.8806C31.3373 98.0608 31.4885 97.9922 30.4387 95.6889C28.3749 91.1599 23.6353 86.2392 18.1593 82.94C15.2656 81.1966 10.673 79.1078 9.07458 78.808L8.39955 78.6813L8.51008 79.2705ZM131.327 79.4044C122.569 82.9496 115.38 89.2749 112.55 95.9247C111.689 97.9473 111.872 98.0263 114.935 96.9572C123.815 93.8583 130.226 88.0317 133.301 80.2644C134.032 78.4185 133.902 78.3618 131.327 79.4044ZM29.2505 80.7576C29.0061 81.0018 29.1505 84.168 29.4997 86.2249C30.4507 91.8259 32.8253 96.3578 36.9594 100.463C38.8534 102.343 42.6384 104.973 43.4505 104.973C43.7959 104.973 43.7961 104.958 43.473 102.657C42.1829 93.4665 37.9726 86.3998 30.885 81.5289C29.5515 80.6123 29.4455 80.5625 29.2505 80.7576ZM112.105 81.6127C105.251 86.5171 100.862 94.5613 100.108 103.604C99.9691 105.269 99.9985 105.279 101.772 104.186C106.456 101.297 110.427 96.4103 112.287 91.2433C113.565 87.6956 114.448 80.9493 113.669 80.6932C113.565 80.6586 112.861 81.0724 112.105 81.6127ZM45.9124 97.6634C45.7641 97.9034 46.4828 99.6429 47.3724 101.198C49.9639 105.727 54.2515 109.466 60.178 112.364C63.4688 113.973 68.5814 115.812 68.8942 115.499C69.2256 115.167 67.4988 111.878 65.8321 109.666C61.9264 104.483 54.9173 99.9234 47.9112 98.0084C47.1906 97.8114 46.4708 97.6133 46.3116 97.5681C46.1524 97.5228 45.9727 97.5657 45.9124 97.6634ZM96.0673 97.9494C92.2344 99.081 86.4818 102.047 84.0736 104.133C80.5855 107.155 78.4004 109.823 76.7349 113.094C75.9389 114.658 75.6824 115.575 76.0414 115.575C76.8094 115.575 81.3042 113.831 83.9575 112.504C90.4829 109.24 94.8296 104.996 97.3036 99.4738C98.2097 97.4508 98.1221 97.3429 96.0673 97.9494ZM15.7522 97.8733C13.6527 98.032 11.7868 98.3504 11.649 98.5735C11.4966 98.82 12.489 99.8131 14.0723 100.999C18.7604 104.509 25.5264 106.405 33.4795 106.436C39.7694 106.461 40.2191 106.284 38.3023 104.53C34.1114 100.696 28.1357 98.3375 21.3954 97.8575C18.8242 97.6743 18.3687 97.6755 15.7522 97.8733ZM121.855 97.7779C116.663 98.2909 114.134 98.9608 110.511 100.782C107.922 102.084 104.041 105.118 104.041 105.84C104.041 106.289 105.816 106.459 110.124 106.421C116.398 106.367 121.938 104.987 126.308 102.39C128.644 101.002 130.901 98.9157 130.5 98.5153C130.083 98.0984 123.926 97.5733 121.855 97.7779ZM35.6754 108.125C32.3566 108.551 26.2021 110.785 26.0394 111.622C25.9979 111.837 26.585 112.095 28.6693 112.778C38.6252 116.043 47.5156 116.23 52.7275 113.284C53.8432 112.654 53.8601 112.441 52.8503 111.746C48.5421 108.782 41.735 107.347 35.6754 108.125ZM100.652 108.107C97.1522 108.761 96.1854 109.072 93.6132 110.376C91.3754 111.511 90.3717 112.248 90.5245 112.647C90.6804 113.053 92.8629 114.12 94.5228 114.601C99.6064 116.074 107.256 115.327 114.869 112.614C116.445 112.052 116.907 111.817 116.867 111.6C116.748 110.952 112.14 109.049 108.994 108.348C107.549 108.026 101.951 107.864 100.652 108.107ZM53.1185 115.344C47.3431 115.757 43.0327 117.2 40.3672 119.614L39.6493 120.264L40.0339 120.593C41.0459 121.457 45.4862 122.18 49.7717 122.178C54.7797 122.176 58.5469 121.493 64.0677 119.584C67.8742 118.268 69.1909 118.217 70.1968 119.348C70.4963 119.684 70.4144 119.783 66.8078 123.428C64.7751 125.482 62.6622 127.537 62.1125 127.994C61.5628 128.451 61.1132 128.92 61.1132 129.035C61.1132 129.34 61.8681 130 62.2175 130C63.4325 130 65.741 127.797 67.4988 124.96C69.2693 122.103 71.1096 120.441 72.5036 120.441C73.7904 120.441 75.6481 122.228 77.293 125.048C79.4572 128.758 81.9198 130.728 82.9813 129.598C83.5211 129.023 83.5142 129.01 81.8384 127.478C81.0021 126.714 79.5657 125.268 78.6467 124.264C77.7276 123.261 76.4175 121.867 75.7356 121.166C74.329 119.722 74.2817 119.574 75.0491 119.028C76.0818 118.293 77.1918 118.369 79.8832 119.359C85.7403 121.514 89.1346 122.179 94.2795 122.179C98.3394 122.179 103.346 121.269 103.651 120.475C103.877 119.886 101.222 117.954 98.8222 116.962C92.497 114.349 84.0314 114.803 74.5014 118.267C73.0732 118.786 72.2758 118.993 72.0857 118.895C71.7245 118.709 68.0124 117.462 66.414 116.989C62.4608 115.821 56.6004 115.096 53.1185 115.344Z" fill="#A08961"/>
</svg>
